<mxfile host="app.diagrams.net" modified="2022-01-03T04:47:11.940Z" agent="5.0 (Windows NT 6.1; Win64; x64) AppleWebKit/537.36 (KHTML, like Gecko) Chrome/96.0.4664.110 Safari/537.36" etag="vHPooPLakKthNWQmzcZX" version="16.1.2" type="github">
  <diagram id="WcovPcDTkC2eF8gbSjUs" name="第 1 页">
    <mxGraphModel dx="1422" dy="762" grid="1" gridSize="10" guides="1" tooltips="1" connect="1" arrows="1" fold="1" page="1" pageScale="1" pageWidth="827" pageHeight="1169" background="#ffffff" math="0" shadow="0">
      <root>
        <mxCell id="0" />
        <mxCell id="1" parent="0" />
        <mxCell id="AjlQ-9ImhQkhMpnw_hRL-50" value="&lt;font face=&quot;Comic Sans MS&quot;&gt;0&lt;/font&gt;" style="rounded=0;whiteSpace=wrap;html=1;fillColor=#ffcccc;strokeColor=#36393d;shadow=1;opacity=0;" vertex="1" parent="1">
          <mxGeometry x="180" y="240" width="40" height="40" as="geometry" />
        </mxCell>
        <mxCell id="AjlQ-9ImhQkhMpnw_hRL-51" value="&lt;font face=&quot;Comic Sans MS&quot;&gt;1&lt;/font&gt;" style="rounded=0;whiteSpace=wrap;html=1;fillColor=#ffcccc;strokeColor=#36393d;shadow=1;opacity=0;" vertex="1" parent="1">
          <mxGeometry x="220" y="240" width="40" height="40" as="geometry" />
        </mxCell>
        <mxCell id="AjlQ-9ImhQkhMpnw_hRL-52" value="&lt;font face=&quot;Comic Sans MS&quot;&gt;2&lt;/font&gt;" style="rounded=0;whiteSpace=wrap;html=1;fillColor=#ffcccc;strokeColor=#36393d;shadow=1;opacity=0;" vertex="1" parent="1">
          <mxGeometry x="260" y="240" width="40" height="40" as="geometry" />
        </mxCell>
        <mxCell id="AjlQ-9ImhQkhMpnw_hRL-53" value="&lt;font face=&quot;Comic Sans MS&quot;&gt;3&lt;/font&gt;" style="rounded=0;whiteSpace=wrap;html=1;fillColor=#ffcccc;strokeColor=#36393d;shadow=1;opacity=0;" vertex="1" parent="1">
          <mxGeometry x="300" y="240" width="40" height="40" as="geometry" />
        </mxCell>
        <mxCell id="AjlQ-9ImhQkhMpnw_hRL-54" value="&lt;font face=&quot;Comic Sans MS&quot;&gt;4&lt;/font&gt;" style="rounded=0;whiteSpace=wrap;html=1;fillColor=#ffcccc;strokeColor=#36393d;shadow=1;opacity=0;" vertex="1" parent="1">
          <mxGeometry x="340" y="240" width="40" height="40" as="geometry" />
        </mxCell>
        <mxCell id="AjlQ-9ImhQkhMpnw_hRL-55" value="&lt;font face=&quot;Comic Sans MS&quot;&gt;5&lt;/font&gt;" style="rounded=0;whiteSpace=wrap;html=1;fillColor=#ffcccc;strokeColor=#36393d;shadow=1;opacity=0;" vertex="1" parent="1">
          <mxGeometry x="380" y="240" width="40" height="40" as="geometry" />
        </mxCell>
        <mxCell id="AjlQ-9ImhQkhMpnw_hRL-56" value="&lt;font face=&quot;Comic Sans MS&quot;&gt;6&lt;/font&gt;" style="rounded=0;whiteSpace=wrap;html=1;fillColor=#ffcccc;strokeColor=#36393d;shadow=1;opacity=0;" vertex="1" parent="1">
          <mxGeometry x="420" y="240" width="40" height="40" as="geometry" />
        </mxCell>
        <mxCell id="AjlQ-9ImhQkhMpnw_hRL-57" value="&lt;font face=&quot;Comic Sans MS&quot;&gt;7&lt;/font&gt;" style="rounded=0;whiteSpace=wrap;html=1;fillColor=#ffcccc;strokeColor=#36393d;shadow=1;opacity=0;" vertex="1" parent="1">
          <mxGeometry x="460" y="240" width="40" height="40" as="geometry" />
        </mxCell>
        <mxCell id="AjlQ-9ImhQkhMpnw_hRL-58" value="&lt;font face=&quot;Comic Sans MS&quot;&gt;8&lt;/font&gt;" style="rounded=0;whiteSpace=wrap;html=1;fillColor=#ffcccc;strokeColor=#36393d;shadow=1;opacity=0;" vertex="1" parent="1">
          <mxGeometry x="500" y="240" width="40" height="40" as="geometry" />
        </mxCell>
        <mxCell id="AjlQ-9ImhQkhMpnw_hRL-59" value="&lt;font face=&quot;Comic Sans MS&quot;&gt;9&lt;/font&gt;" style="rounded=0;whiteSpace=wrap;html=1;fillColor=#ffcccc;strokeColor=#36393d;shadow=1;opacity=0;" vertex="1" parent="1">
          <mxGeometry x="540" y="240" width="40" height="40" as="geometry" />
        </mxCell>
        <mxCell id="AjlQ-9ImhQkhMpnw_hRL-60" value="&lt;font face=&quot;Comic Sans MS&quot;&gt;10&lt;/font&gt;" style="rounded=0;whiteSpace=wrap;html=1;fillColor=#ffcccc;strokeColor=#36393d;shadow=1;opacity=0;" vertex="1" parent="1">
          <mxGeometry x="580" y="240" width="40" height="40" as="geometry" />
        </mxCell>
        <mxCell id="AjlQ-9ImhQkhMpnw_hRL-61" value="&lt;font face=&quot;Comic Sans MS&quot;&gt;11&lt;/font&gt;" style="rounded=0;whiteSpace=wrap;html=1;fillColor=#ffcccc;strokeColor=#36393d;shadow=1;opacity=0;" vertex="1" parent="1">
          <mxGeometry x="620" y="240" width="40" height="40" as="geometry" />
        </mxCell>
        <mxCell id="AjlQ-9ImhQkhMpnw_hRL-43" value="&lt;font face=&quot;Comic Sans MS&quot;&gt;0&lt;/font&gt;" style="rounded=0;whiteSpace=wrap;html=1;fillColor=#ffcccc;strokeColor=#36393d;shadow=1;" vertex="1" parent="1">
          <mxGeometry x="180" y="280" width="40" height="40" as="geometry" />
        </mxCell>
        <mxCell id="AjlQ-9ImhQkhMpnw_hRL-44" value="&lt;font face=&quot;Comic Sans MS&quot;&gt;1&lt;/font&gt;" style="rounded=0;whiteSpace=wrap;html=1;fillColor=#ffcccc;strokeColor=#36393d;shadow=1;" vertex="1" parent="1">
          <mxGeometry x="220" y="280" width="40" height="40" as="geometry" />
        </mxCell>
        <mxCell id="AjlQ-9ImhQkhMpnw_hRL-45" value="&lt;font face=&quot;Comic Sans MS&quot;&gt;1&lt;/font&gt;" style="rounded=0;whiteSpace=wrap;html=1;fillColor=#ffcccc;strokeColor=#36393d;shadow=1;" vertex="1" parent="1">
          <mxGeometry x="260" y="280" width="40" height="40" as="geometry" />
        </mxCell>
        <mxCell id="AjlQ-9ImhQkhMpnw_hRL-31" value="&lt;font face=&quot;Comic Sans MS&quot;&gt;1&lt;/font&gt;" style="rounded=0;whiteSpace=wrap;html=1;fillColor=#cce5ff;strokeColor=#36393d;shadow=1;" vertex="1" parent="1">
          <mxGeometry x="360" y="160" width="40" height="40" as="geometry" />
        </mxCell>
        <mxCell id="AjlQ-9ImhQkhMpnw_hRL-32" value="&lt;font face=&quot;Comic Sans MS&quot;&gt;2&lt;/font&gt;" style="rounded=0;whiteSpace=wrap;html=1;fillColor=#cce5ff;strokeColor=#36393d;shadow=1;" vertex="1" parent="1">
          <mxGeometry x="400" y="160" width="40" height="40" as="geometry" />
        </mxCell>
        <mxCell id="AjlQ-9ImhQkhMpnw_hRL-33" value="&lt;font face=&quot;Comic Sans MS&quot;&gt;5&lt;/font&gt;" style="rounded=0;whiteSpace=wrap;html=1;fillColor=#cce5ff;strokeColor=#36393d;shadow=1;" vertex="1" parent="1">
          <mxGeometry x="440" y="160" width="40" height="40" as="geometry" />
        </mxCell>
        <mxCell id="AjlQ-9ImhQkhMpnw_hRL-35" value="&lt;font face=&quot;Comic Sans MS&quot;&gt;coins数组&lt;/font&gt;" style="text;html=1;strokeColor=none;fillColor=none;align=center;verticalAlign=middle;whiteSpace=wrap;rounded=0;shadow=1;opacity=0;" vertex="1" parent="1">
          <mxGeometry x="360" y="200" width="120" height="40" as="geometry" />
        </mxCell>
        <mxCell id="AjlQ-9ImhQkhMpnw_hRL-36" value="&lt;font face=&quot;Comic Sans MS&quot;&gt;2&lt;/font&gt;" style="rounded=0;whiteSpace=wrap;html=1;fillColor=#ffcccc;strokeColor=#36393d;shadow=1;" vertex="1" parent="1">
          <mxGeometry x="300" y="280" width="40" height="40" as="geometry" />
        </mxCell>
        <mxCell id="AjlQ-9ImhQkhMpnw_hRL-37" value="&lt;font face=&quot;Comic Sans MS&quot;&gt;2&lt;/font&gt;" style="rounded=0;whiteSpace=wrap;html=1;fillColor=#ffcccc;strokeColor=#36393d;shadow=1;" vertex="1" parent="1">
          <mxGeometry x="340" y="280" width="40" height="40" as="geometry" />
        </mxCell>
        <mxCell id="AjlQ-9ImhQkhMpnw_hRL-38" value="&lt;font face=&quot;Comic Sans MS&quot;&gt;1&lt;/font&gt;" style="rounded=0;whiteSpace=wrap;html=1;fillColor=#ffcccc;strokeColor=#36393d;shadow=1;" vertex="1" parent="1">
          <mxGeometry x="380" y="280" width="40" height="40" as="geometry" />
        </mxCell>
        <mxCell id="AjlQ-9ImhQkhMpnw_hRL-39" value="&lt;font face=&quot;Comic Sans MS&quot;&gt;dp数组&lt;/font&gt;" style="text;html=1;strokeColor=none;fillColor=none;align=center;verticalAlign=middle;whiteSpace=wrap;rounded=0;shadow=1;opacity=0;" vertex="1" parent="1">
          <mxGeometry x="120" y="280" width="60" height="40" as="geometry" />
        </mxCell>
        <mxCell id="AjlQ-9ImhQkhMpnw_hRL-40" value="&lt;font face=&quot;Comic Sans MS&quot;&gt;2&lt;/font&gt;" style="rounded=0;whiteSpace=wrap;html=1;fillColor=#ffcccc;strokeColor=#36393d;shadow=1;" vertex="1" parent="1">
          <mxGeometry x="420" y="280" width="40" height="40" as="geometry" />
        </mxCell>
        <mxCell id="AjlQ-9ImhQkhMpnw_hRL-41" value="&lt;font face=&quot;Comic Sans MS&quot;&gt;2&lt;/font&gt;" style="rounded=0;whiteSpace=wrap;html=1;fillColor=#ffcccc;strokeColor=#36393d;shadow=1;" vertex="1" parent="1">
          <mxGeometry x="460" y="280" width="40" height="40" as="geometry" />
        </mxCell>
        <mxCell id="AjlQ-9ImhQkhMpnw_hRL-42" value="&lt;font face=&quot;Comic Sans MS&quot;&gt;3&lt;/font&gt;" style="rounded=0;whiteSpace=wrap;html=1;fillColor=#ffcccc;strokeColor=#36393d;shadow=1;" vertex="1" parent="1">
          <mxGeometry x="500" y="280" width="40" height="40" as="geometry" />
        </mxCell>
        <mxCell id="AjlQ-9ImhQkhMpnw_hRL-46" value="&lt;font face=&quot;Comic Sans MS&quot;&gt;3&lt;/font&gt;" style="rounded=0;whiteSpace=wrap;html=1;fillColor=#ffcccc;strokeColor=#36393d;shadow=1;" vertex="1" parent="1">
          <mxGeometry x="540" y="280" width="40" height="40" as="geometry" />
        </mxCell>
        <mxCell id="AjlQ-9ImhQkhMpnw_hRL-47" value="&lt;font face=&quot;Comic Sans MS&quot;&gt;2&lt;/font&gt;" style="rounded=0;whiteSpace=wrap;html=1;fillColor=#ffcccc;strokeColor=#36393d;shadow=1;" vertex="1" parent="1">
          <mxGeometry x="580" y="280" width="40" height="40" as="geometry" />
        </mxCell>
        <mxCell id="AjlQ-9ImhQkhMpnw_hRL-48" value="&lt;font face=&quot;Comic Sans MS&quot;&gt;3&lt;/font&gt;" style="rounded=0;whiteSpace=wrap;html=1;fillColor=#ffcccc;strokeColor=#36393d;shadow=1;" vertex="1" parent="1">
          <mxGeometry x="620" y="280" width="40" height="40" as="geometry" />
        </mxCell>
        <mxCell id="AjlQ-9ImhQkhMpnw_hRL-62" value="" style="endArrow=none;html=1;rounded=0;fontFamily=Comic Sans MS;entryX=1;entryY=1;entryDx=0;entryDy=0;" edge="1" parent="1">
          <mxGeometry width="50" height="50" relative="1" as="geometry">
            <mxPoint x="560" y="400" as="sourcePoint" />
            <mxPoint x="620" y="320" as="targetPoint" />
          </mxGeometry>
        </mxCell>
        <mxCell id="AjlQ-9ImhQkhMpnw_hRL-63" value="" style="endArrow=none;html=1;rounded=0;fontFamily=Comic Sans MS;exitX=1;exitY=1;exitDx=0;exitDy=0;" edge="1" parent="1">
          <mxGeometry width="50" height="50" relative="1" as="geometry">
            <mxPoint x="660" y="320" as="sourcePoint" />
            <mxPoint x="720" y="400" as="targetPoint" />
          </mxGeometry>
        </mxCell>
        <mxCell id="AjlQ-9ImhQkhMpnw_hRL-72" style="edgeStyle=orthogonalEdgeStyle;rounded=0;orthogonalLoop=1;jettySize=auto;html=1;exitX=0.5;exitY=1;exitDx=0;exitDy=0;entryX=0.5;entryY=0;entryDx=0;entryDy=0;fontFamily=Comic Sans MS;" edge="1" parent="1" source="AjlQ-9ImhQkhMpnw_hRL-64" target="AjlQ-9ImhQkhMpnw_hRL-71">
          <mxGeometry relative="1" as="geometry" />
        </mxCell>
        <mxCell id="AjlQ-9ImhQkhMpnw_hRL-64" value="dp[11-1] + 1 = 3&lt;br&gt;dp[11-2] + 1 = 4&lt;br&gt;dp[11-5] + 1 = 3&lt;br&gt;dp[11] = min(3, 4, 3)" style="text;html=1;strokeColor=none;fillColor=none;align=center;verticalAlign=middle;whiteSpace=wrap;rounded=0;shadow=1;fontFamily=Comic Sans MS;opacity=0;" vertex="1" parent="1">
          <mxGeometry x="580" y="340" width="120" height="60" as="geometry" />
        </mxCell>
        <mxCell id="AjlQ-9ImhQkhMpnw_hRL-65" value="" style="endArrow=none;html=1;rounded=0;fontFamily=Comic Sans MS;entryX=1;entryY=1;entryDx=0;entryDy=0;" edge="1" parent="1">
          <mxGeometry width="50" height="50" relative="1" as="geometry">
            <mxPoint x="400" y="400" as="sourcePoint" />
            <mxPoint x="460" y="320" as="targetPoint" />
          </mxGeometry>
        </mxCell>
        <mxCell id="AjlQ-9ImhQkhMpnw_hRL-66" value="" style="endArrow=none;html=1;rounded=0;fontFamily=Comic Sans MS;exitX=1;exitY=1;exitDx=0;exitDy=0;" edge="1" parent="1">
          <mxGeometry width="50" height="50" relative="1" as="geometry">
            <mxPoint x="500" y="320" as="sourcePoint" />
            <mxPoint x="560" y="400" as="targetPoint" />
          </mxGeometry>
        </mxCell>
        <mxCell id="AjlQ-9ImhQkhMpnw_hRL-67" value="dp[7-1] + 1 = 3&lt;br&gt;dp[7-2] + 1 = 2&lt;br&gt;dp[7-5] + 1 = 2&lt;br&gt;dp[7] = min(3, 2, 2)" style="text;html=1;strokeColor=none;fillColor=none;align=center;verticalAlign=middle;whiteSpace=wrap;rounded=0;shadow=1;fontFamily=Comic Sans MS;opacity=0;" vertex="1" parent="1">
          <mxGeometry x="420" y="340" width="120" height="60" as="geometry" />
        </mxCell>
        <mxCell id="AjlQ-9ImhQkhMpnw_hRL-68" value="" style="endArrow=none;html=1;rounded=0;fontFamily=Comic Sans MS;entryX=1;entryY=1;entryDx=0;entryDy=0;" edge="1" parent="1">
          <mxGeometry width="50" height="50" relative="1" as="geometry">
            <mxPoint x="240" y="400" as="sourcePoint" />
            <mxPoint x="300" y="320" as="targetPoint" />
          </mxGeometry>
        </mxCell>
        <mxCell id="AjlQ-9ImhQkhMpnw_hRL-69" value="" style="endArrow=none;html=1;rounded=0;fontFamily=Comic Sans MS;exitX=1;exitY=1;exitDx=0;exitDy=0;" edge="1" parent="1">
          <mxGeometry width="50" height="50" relative="1" as="geometry">
            <mxPoint x="340" y="320" as="sourcePoint" />
            <mxPoint x="400" y="400" as="targetPoint" />
          </mxGeometry>
        </mxCell>
        <mxCell id="AjlQ-9ImhQkhMpnw_hRL-70" value="dp[3-1] + 1 = 2&lt;br&gt;dp[3-2] + 1 = 2&lt;br&gt;dp[3] = min(2, 2)" style="text;html=1;strokeColor=none;fillColor=none;align=center;verticalAlign=middle;whiteSpace=wrap;rounded=0;shadow=1;fontFamily=Comic Sans MS;opacity=0;" vertex="1" parent="1">
          <mxGeometry x="260" y="340" width="120" height="60" as="geometry" />
        </mxCell>
        <mxCell id="AjlQ-9ImhQkhMpnw_hRL-71" value="用凑成10元最少的硬币数量2再加上1元硬币就凑成了11元，总共数量为3&lt;br&gt;用凑成9元最少的硬币数量3再加上2元硬币就凑成了11元，总共数量为4&lt;br&gt;用凑成6元最少的硬币数量2再加上5元硬币就凑成了11元，总共数量为3&lt;br&gt;dp[11]选上述数量最少的硬币方案：3" style="text;html=1;strokeColor=none;fillColor=none;align=center;verticalAlign=middle;whiteSpace=wrap;rounded=0;shadow=1;fontFamily=Comic Sans MS;opacity=0;" vertex="1" parent="1">
          <mxGeometry x="330" y="440" width="400" height="90" as="geometry" />
        </mxCell>
      </root>
    </mxGraphModel>
  </diagram>
</mxfile>
